<?xml version="1.0" encoding="utf-8"?>
<!-- Generator: Adobe Illustrator 27.5.0, SVG Export Plug-In . SVG Version: 6.00 Build 0)  -->
<svg version="1.1" id="Layer_1" xmlns="http://www.w3.org/2000/svg" xmlns:xlink="http://www.w3.org/1999/xlink" x="0px" y="0px"
	 viewBox="0 0 512 512" style="enable-background:new 0 0 512 512;" xml:space="preserve">
<g>
	<path d="M145.44,214.85L131.52,256H96l59.58-160h41.09L256,256h-37.34l-13.92-41.15L145.44,214.85z M197.73,191.3L176,126.59h-1.57
		l-21.73,64.7h45.06H197.73z"/>
	<path d="M0,64C0,28.65,28.65,0,64,0h224c35.35,0,64,28.65,64,64v96h96c35.35,0,64,28.65,64,64v224c0,35.35-28.65,64-64,64H224
		c-35.35,0-64-28.65-64-64v-96H64c-35.35,0-64-28.65-64-64V64z M64,32c-17.67,0-32,14.33-32,32v224c0,17.67,14.33,32,32,32h224
		c17.67,0,32-14.33,32-32V64c0-17.67-14.33-32-32-32H64z M292.42,351.84c6.18,9.63,12.86,18.66,20.16,27.07
		c-23.94,18.4-53.54,32.03-88.58,41.34c5.7,6.94,14.43,20.32,17.76,27.74c36-11.49,66.56-27.01,92.35-47.81
		c24.86,21.28,55.65,37.28,93.76,47.1c4.26-8.13,13.25-21.54,20.13-28.48c-36-8.1-65.82-22.21-90.24-41.09
		c21.79-23.9,39.1-52.83,51.87-88.22H448V256h-96v33.5h24.48c-10.18,27.01-23.68,49.47-40.7,68.16c-4.7-5.01-9.14-10.26-13.28-15.74
		C313.47,347.71,303.12,351.12,292.42,351.84z"/>
</g>
</svg>
